<svg width="138" height="53" viewBox="0 0 138 53" fill="none" xmlns="http://www.w3.org/2000/svg">
<g clip-path="url(#clip0_5_15)">
<path d="M85 46.0001C85 44.8287 86.0972 43.9178 87.3504 44.0489L124.714 47.955C129.504 48.4557 133.561 44.7073 133.047 40.2558C132.511 35.6191 127.334 32.7572 122.691 34.5312L87.9181 47.816C86.5269 48.3475 85 47.3974 85 46.0001Z" fill="url(#paint0_linear_5_15)"/>
<path d="M13.4459 34.032V28.464H20.5979C22.1019 28.464 23.2539 28.08 24.0539 27.312C24.8859 26.544 25.3019 25.504 25.3019 24.192C25.3019 22.976 24.9019 21.968 24.1019 21.168C23.3019 20.368 22.1499 19.968 20.6459 19.968H13.4459V14.112H21.5099C23.7499 14.112 25.7179 14.544 27.4139 15.408C29.1099 16.24 30.4379 17.408 31.3979 18.912C32.3579 20.416 32.8379 22.144 32.8379 24.096C32.8379 26.08 32.3579 27.824 31.3979 29.328C30.4379 30.8 29.0939 31.952 27.3659 32.784C25.6379 33.616 23.6059 34.032 21.2699 34.032H13.4459ZM7.68588 48V14.112H15.2219V48H7.68588ZM26.1179 48L15.5579 33.408L22.4699 31.536L35.0459 48H26.1179ZM49.4144 48.48C47.0784 48.48 44.9664 47.952 43.0784 46.896C41.2224 45.808 39.7344 44.352 38.6144 42.528C37.5264 40.672 36.9824 38.608 36.9824 36.336C36.9824 34.064 37.5264 32.032 38.6144 30.24C39.7024 28.416 41.1904 26.976 43.0784 25.92C44.9664 24.832 47.0624 24.288 49.3664 24.288C51.7344 24.288 53.8464 24.832 55.7024 25.92C57.5904 26.976 59.0784 28.416 60.1664 30.24C61.2544 32.032 61.7984 34.064 61.7984 36.336C61.7984 38.608 61.2544 40.672 60.1664 42.528C59.0784 44.352 57.5904 45.808 55.7024 46.896C53.8464 47.952 51.7504 48.48 49.4144 48.48ZM49.3664 42.624C50.5504 42.624 51.5904 42.368 52.4864 41.856C53.4144 41.312 54.1184 40.576 54.5984 39.648C55.1104 38.688 55.3664 37.6 55.3664 36.384C55.3664 35.168 55.1104 34.096 54.5984 33.168C54.0864 32.24 53.3824 31.52 52.4864 31.008C51.5904 30.464 50.5504 30.192 49.3664 30.192C48.2144 30.192 47.1904 30.464 46.2944 31.008C45.3984 31.52 44.6944 32.24 44.1824 33.168C43.6704 34.096 43.4144 35.168 43.4144 36.384C43.4144 37.6 43.6704 38.688 44.1824 39.648C44.6944 40.576 45.3984 41.312 46.2944 41.856C47.1904 42.368 48.2144 42.624 49.3664 42.624ZM81.4465 48V34.704C81.4465 33.328 81.0145 32.208 80.1505 31.344C79.2865 30.48 78.1665 30.048 76.7905 30.048C75.8945 30.048 75.0945 30.24 74.3905 30.624C73.6865 31.008 73.1265 31.552 72.7105 32.256C72.3265 32.96 72.1345 33.776 72.1345 34.704L69.6865 33.456C69.6865 31.632 70.0705 30.048 70.8385 28.704C71.6065 27.328 72.6625 26.256 74.0065 25.488C75.3825 24.72 76.9505 24.336 78.7105 24.336C80.4705 24.336 82.0225 24.72 83.3665 25.488C84.7425 26.256 85.8145 27.312 86.5825 28.656C87.3505 30 87.7345 31.552 87.7345 33.312V48H81.4465ZM65.8465 48V13.296H72.1345V48H65.8465ZM92.7996 48V24.816H99.1356V48H92.7996ZM95.9676 21.072C94.9436 21.072 94.0956 20.736 93.4236 20.064C92.7516 19.36 92.4156 18.496 92.4156 17.472C92.4156 16.48 92.7516 15.632 93.4236 14.928C94.0956 14.224 94.9436 13.872 95.9676 13.872C97.0236 13.872 97.8716 14.224 98.5116 14.928C99.1836 15.632 99.5196 16.48 99.5196 17.472C99.5196 18.496 99.1836 19.36 98.5116 20.064C97.8716 20.736 97.0236 21.072 95.9676 21.072ZM113.49 48V14.592H121.026V48H113.49ZM102.882 20.688V14.112H131.634V20.688H102.882Z" fill="white"/>
</g>
<defs>
<linearGradient id="paint0_linear_5_15" x1="265.762" y1="43.3205" x2="248.21" y2="101.639" gradientUnits="userSpaceOnUse">
<stop stop-color="#DF8908"/>
<stop offset="1" stop-color="#B415FF"/>
</linearGradient>
<clipPath id="clip0_5_15">
<rect width="138" height="53" fill="white"/>
</clipPath>
</defs>
</svg>
