<svg width="187" height="86" viewBox="0 0 187 86" fill="none" xmlns="http://www.w3.org/2000/svg">
<g clip-path="url(#clip0_1_2)">
<path d="M113 62.4667C113 61.3474 113.961 60.4771 115.059 60.6022L147.792 64.3348C151.988 64.8133 155.542 61.2314 155.092 56.9778C154.623 52.5471 150.087 49.8125 146.02 51.5076L115.556 64.2019C114.338 64.7098 113 63.8019 113 62.4667Z" fill="url(#paint0_linear_1_2)"/>
<path d="M38.4459 50.032V44.464H45.5979C47.1019 44.464 48.2539 44.08 49.0539 43.312C49.8859 42.544 50.3019 41.504 50.3019 40.192C50.3019 38.976 49.9019 37.968 49.1019 37.168C48.3019 36.368 47.1499 35.968 45.6459 35.968H38.4459V30.112H46.5099C48.7499 30.112 50.7179 30.544 52.4139 31.408C54.1099 32.24 55.4379 33.408 56.3979 34.912C57.3579 36.416 57.8379 38.144 57.8379 40.096C57.8379 42.08 57.3579 43.824 56.3979 45.328C55.4379 46.8 54.0939 47.952 52.3659 48.784C50.6379 49.616 48.6059 50.032 46.2699 50.032H38.4459ZM32.6859 64V30.112H40.2219V64H32.6859ZM51.1179 64L40.5579 49.408L47.4699 47.536L60.0459 64H51.1179ZM74.4144 64.48C72.0784 64.48 69.9664 63.952 68.0784 62.896C66.2224 61.808 64.7344 60.352 63.6144 58.528C62.5264 56.672 61.9824 54.608 61.9824 52.336C61.9824 50.064 62.5264 48.032 63.6144 46.24C64.7024 44.416 66.1904 42.976 68.0784 41.92C69.9664 40.832 72.0624 40.288 74.3664 40.288C76.7344 40.288 78.8464 40.832 80.7024 41.92C82.5904 42.976 84.0784 44.416 85.1664 46.24C86.2544 48.032 86.7984 50.064 86.7984 52.336C86.7984 54.608 86.2544 56.672 85.1664 58.528C84.0784 60.352 82.5904 61.808 80.7024 62.896C78.8464 63.952 76.7504 64.48 74.4144 64.48ZM74.3664 58.624C75.5504 58.624 76.5904 58.368 77.4864 57.856C78.4144 57.312 79.1184 56.576 79.5984 55.648C80.1104 54.688 80.3664 53.6 80.3664 52.384C80.3664 51.168 80.1104 50.096 79.5984 49.168C79.0864 48.24 78.3824 47.52 77.4864 47.008C76.5904 46.464 75.5504 46.192 74.3664 46.192C73.2144 46.192 72.1904 46.464 71.2944 47.008C70.3984 47.52 69.6944 48.24 69.1824 49.168C68.6704 50.096 68.4144 51.168 68.4144 52.384C68.4144 53.6 68.6704 54.688 69.1824 55.648C69.6944 56.576 70.3984 57.312 71.2944 57.856C72.1904 58.368 73.2144 58.624 74.3664 58.624ZM106.447 64V50.704C106.447 49.328 106.015 48.208 105.151 47.344C104.287 46.48 103.167 46.048 101.791 46.048C100.895 46.048 100.095 46.24 99.3905 46.624C98.6865 47.008 98.1265 47.552 97.7105 48.256C97.3265 48.96 97.1345 49.776 97.1345 50.704L94.6865 49.456C94.6865 47.632 95.0705 46.048 95.8385 44.704C96.6065 43.328 97.6625 42.256 99.0065 41.488C100.383 40.72 101.951 40.336 103.711 40.336C105.471 40.336 107.023 40.72 108.367 41.488C109.743 42.256 110.815 43.312 111.583 44.656C112.351 46 112.734 47.552 112.734 49.312V64H106.447ZM90.8465 64V29.296H97.1345V64H90.8465ZM117.8 64V40.816H124.136V64H117.8ZM120.968 37.072C119.944 37.072 119.096 36.736 118.424 36.064C117.752 35.36 117.416 34.496 117.416 33.472C117.416 32.48 117.752 31.632 118.424 30.928C119.096 30.224 119.944 29.872 120.968 29.872C122.024 29.872 122.872 30.224 123.512 30.928C124.184 31.632 124.52 32.48 124.52 33.472C124.52 34.496 124.184 35.36 123.512 36.064C122.872 36.736 122.024 37.072 120.968 37.072ZM138.49 64V30.592H146.026V64H138.49ZM127.882 36.688V30.112H156.634V36.688H127.882Z" fill="white"/>
</g>
<defs>
<linearGradient id="paint0_linear_1_2" x1="271.358" y1="59.9063" x2="253.348" y2="114.769" gradientUnits="userSpaceOnUse">
<stop stop-color="#DF8908"/>
<stop offset="1" stop-color="#B415FF"/>
</linearGradient>
<clipPath id="clip0_1_2">
<rect width="187" height="86" fill="white"/>
</clipPath>
</defs>
</svg>
